<svg width="298" height="56" viewBox="0 0 298 56" fill="none" xmlns="http://www.w3.org/2000/svg">
<g filter="url(#filter0_d_365_2034)">
<rect x="8" y="6" width="282" height="40" rx="2" fill="#FEE500"/>
</g>
<path d="M110.66 20.78V21.718H115.182C115.14 22.488 115.014 23.216 114.804 23.916L110.03 24.238L110.226 25.246L114.454 24.84C113.684 26.52 112.298 27.948 109.974 29.096L110.604 29.978C115.098 27.738 116.33 24.42 116.33 20.78H110.66ZM121.538 24.574H119.522V19.478H118.374V32.036H119.522V25.526H121.538V24.574ZM123.539 20.78V21.718H128.061C128.019 22.488 127.893 23.216 127.683 23.916L122.909 24.238L123.105 25.246L127.333 24.84C126.563 26.52 125.177 27.948 122.853 29.096L123.483 29.978C127.977 27.738 129.209 24.42 129.209 20.78H123.539ZM134.417 24.574H132.401V19.478H131.253V32.036H132.401V25.526H134.417V24.574ZM137.832 23.594C137.832 22.152 139.302 21.214 141.304 21.214C143.306 21.214 144.762 22.152 144.762 23.594C144.762 25.036 143.306 25.974 141.304 25.974C139.302 25.974 137.832 25.036 137.832 23.594ZM141.878 29.474V26.856C144.216 26.688 145.854 25.442 145.854 23.594C145.854 21.592 143.95 20.304 141.304 20.304C138.644 20.304 136.726 21.592 136.726 23.594C136.726 25.442 138.378 26.688 140.716 26.856V29.474H135.606V30.426H147.016V29.474H141.878ZM158.243 29.544V27.178H162.261V26.254H154.533V24.224H161.967V20.402H153.371V21.34H160.847V23.3H153.399V27.178H157.081V29.544H151.971V30.482H163.381V29.544H158.243ZM173.572 22.068C173.572 23.622 173.572 25.498 173.068 28.06L174.216 28.186C174.706 25.47 174.706 23.664 174.706 22.068V20.808H166.096V21.746H173.572V22.068ZM164.878 29.25V30.202H176.232V29.25H164.878ZM188.047 19.492H186.899V28.662H188.047V19.492ZM179.157 23.44C179.157 22.222 180.081 21.354 181.299 21.354C182.545 21.354 183.469 22.222 183.469 23.44C183.469 24.686 182.545 25.554 181.299 25.554C180.081 25.554 179.157 24.686 179.157 23.44ZM184.589 23.44C184.589 21.634 183.175 20.36 181.299 20.36C179.437 20.36 178.037 21.634 178.037 23.44C178.037 25.26 179.437 26.548 181.299 26.548C183.175 26.548 184.589 25.26 184.589 23.44ZM181.117 30.818V27.724H179.969V31.756H188.425V30.818H181.117Z" fill="black" fill-opacity="0.85"/>
<g clip-path="url(#clip0_365_2034)">
<path fill-rule="evenodd" clip-rule="evenodd" d="M29.77 17.34C25.13 17.34 21 20.55 21 24.51C21 26.97 22.6 29.14 25.03 30.43L24.01 34.19C23.92 34.52 24.3 34.79 24.59 34.59L29.08 31.61C29.46 31.65 29.84 31.67 29.77 31.67C35.33 31.67 39 28.46 39 24.5C39 20.54 35.33 17.33 29.77 17.33" fill="black"/>
</g>
<defs>
<filter id="filter0_d_365_2034" x="0" y="0" width="298" height="56" filterUnits="userSpaceOnUse" color-interpolation-filters="sRGB">
<feFlood flood-opacity="0" result="BackgroundImageFix"/>
<feColorMatrix in="SourceAlpha" type="matrix" values="0 0 0 0 0 0 0 0 0 0 0 0 0 0 0 0 0 0 127 0" result="hardAlpha"/>
<feOffset dy="2"/>
<feGaussianBlur stdDeviation="4"/>
<feComposite in2="hardAlpha" operator="out"/>
<feColorMatrix type="matrix" values="0 0 0 0 0 0 0 0 0 0 0 0 0 0 0 0 0 0 0.12 0"/>
<feBlend mode="normal" in2="BackgroundImageFix" result="effect1_dropShadow_365_2034"/>
<feBlend mode="normal" in="SourceGraphic" in2="effect1_dropShadow_365_2034" result="shape"/>
</filter>
<clipPath id="clip0_365_2034">
<rect width="24" height="24" fill="white" transform="translate(18 14)"/>
</clipPath>
</defs>
</svg>
