<svg width="28" height="28" viewBox="0 0 28 28" fill="none" xmlns="http://www.w3.org/2000/svg">
<g clip-path="url(#clip0_150_2523)">
<path d="M22.6862 24.2361C22.6862 24.2235 22.6866 24.2049 22.6869 24.1822C22.7069 22.2467 22.2494 19.9472 21.4066 18.5759C19.5065 15.4836 14.6345 15.463 13.9649 15.4602C13.323 15.4574 8.13917 15.4997 6.36922 18.6417C5.64017 19.936 5.22227 22.233 5.24292 24.1818C5.24292 24.2046 5.24327 24.2235 5.24362 24.2357H22.6859L22.6862 24.2361Z" fill="#6A53F6"/>
<path d="M19.5017 8.29227H19.4044C18.9316 5.71732 16.6762 3.76642 13.9647 3.76642C11.2533 3.76642 8.99788 5.71767 8.52503 8.29227H8.42773C7.60523 8.29227 6.93848 8.95902 6.93848 9.78152C6.93848 10.604 7.60523 11.2708 8.42773 11.2708H8.79628C9.48333 13.0694 11.0828 14.4169 13.0285 14.7487V15.5884C13.0285 16.1053 13.4474 16.5243 13.9644 16.5243C14.4813 16.5243 14.9003 16.1053 14.9003 15.5884V14.7487C16.8459 14.4169 18.4451 13.0698 19.1325 11.2708H19.501C20.3235 11.2708 20.9903 10.604 20.9903 9.78152C20.9903 8.95902 20.3235 8.29227 19.501 8.29227H19.5017Z" fill="#FFD3C0"/>
<path d="M8.52539 8.2922C8.56809 8.2999 8.63809 8.3181 8.71159 8.3664C8.79944 8.42415 8.84774 8.4959 8.87049 8.53545C8.87049 8.53545 12.2399 6.36195 12.7464 5.96785C12.7464 5.96785 17.3055 8.72585 18.9375 8.72585C18.9631 8.66495 19.0121 8.5694 19.1038 8.4777C19.2168 8.365 19.3379 8.3146 19.4044 8.2922C19.3274 7.798 19.0404 6.3805 17.8196 5.2185C16.3654 3.83425 14.5989 3.77685 13.9651 3.766C13.3316 3.75515 11.2977 3.72085 9.82284 5.29585C8.75744 6.4337 8.56984 7.78575 8.52539 8.29185V8.2922Z" fill="#333333"/>
<path d="M12.6105 9.52698H12.6101C12.3047 9.52698 12.0571 9.77456 12.0571 10.08V10.2504C12.0571 10.5558 12.3047 10.8034 12.6101 10.8034H12.6105C12.9159 10.8034 13.1635 10.5558 13.1635 10.2504V10.08C13.1635 9.77456 12.9159 9.52698 12.6105 9.52698Z" fill="#333333"/>
<path d="M15.32 9.52698H15.3196C15.0142 9.52698 14.7666 9.77456 14.7666 10.08V10.2504C14.7666 10.5558 15.0142 10.8034 15.3196 10.8034H15.32C15.6254 10.8034 15.873 10.5558 15.873 10.2504V10.08C15.873 9.77456 15.6254 9.52698 15.32 9.52698Z" fill="#333333"/>
<path d="M14.6562 11.6396C14.6562 11.8797 14.3468 12.1898 13.9653 12.1898C13.5838 12.1898 13.2744 11.8793 13.2744 11.6396C13.2744 11.3998 13.5838 11.495 13.9653 11.495C14.3468 11.495 14.6562 11.3995 14.6562 11.6396Z" fill="#333333"/>
<path d="M5.26866 13.5706C5.53501 13.3322 5.84756 13.1513 6.18706 13.0396C6.38376 13.286 6.68196 13.4292 6.99696 13.4292C7.31231 13.4292 7.61016 13.286 7.80686 13.0396C8.14636 13.1513 8.45891 13.3322 8.72526 13.5706C8.61046 13.8639 8.63566 14.1936 8.79316 14.4662C8.95066 14.7392 9.22366 14.9261 9.53551 14.973C9.60831 15.3227 9.60831 15.6839 9.53551 16.0335C9.23486 16.0797 8.95731 16.2565 8.79316 16.5403C8.63531 16.813 8.61046 17.1427 8.72526 17.436C8.45891 17.6743 8.14636 17.8549 7.80686 17.9666C7.61016 17.7202 7.31196 17.577 6.99696 17.5774C6.68161 17.5774 6.38376 17.7205 6.18706 17.9669C5.84756 17.8553 5.53501 17.6747 5.26866 17.4363C5.38346 17.143 5.35861 16.8133 5.20076 16.5407C5.04326 16.2677 4.77026 16.0811 4.45841 16.0342C4.38561 15.6846 4.38561 15.3234 4.45841 14.9734C4.77026 14.9261 5.04326 14.7396 5.20076 14.4666C5.35861 14.1939 5.38346 13.8642 5.26866 13.5709V13.5706ZM7.38581 16.1767C7.75926 15.9642 7.88981 15.4896 7.67771 15.1162C7.46526 14.7427 6.99066 14.6122 6.61721 14.8243C6.61406 14.826 6.61126 14.8278 6.60811 14.8295C6.23746 15.0469 6.11321 15.5232 6.33056 15.8939C6.54581 16.261 7.01621 16.387 7.38616 16.1767H7.38581Z" fill="#666666"/>
<path d="M5.37999 13.7302C5.64634 13.4918 5.95889 13.3109 6.29839 13.1992C6.49509 13.4456 6.79329 13.5888 7.10829 13.5888C7.42364 13.5888 7.72149 13.4456 7.91819 13.1992C8.25769 13.3109 8.57024 13.4918 8.83659 13.7302C8.72179 14.0235 8.74699 14.3532 8.90449 14.6258C9.06199 14.8988 9.33499 15.0857 9.64684 15.1326C9.71964 15.4823 9.71964 15.8435 9.64684 16.1931C9.34619 16.2393 9.06864 16.4161 8.90449 16.6999C8.74664 16.9726 8.72179 17.3023 8.83659 17.5956C8.57024 17.8339 8.25769 18.0145 7.91819 18.1262C7.72149 17.8798 7.42329 17.7366 7.10829 17.737C6.79294 17.737 6.49509 17.8801 6.29839 18.1265C5.95889 18.0149 5.64634 17.8343 5.37999 17.5959C5.49479 17.3026 5.46994 16.9729 5.31209 16.7003C5.15459 16.4273 4.88159 16.2407 4.56974 16.1938C4.49694 15.8442 4.49694 15.483 4.56974 15.133C4.88159 15.0857 5.15459 14.8992 5.31209 14.6262C5.46994 14.3535 5.49479 14.0238 5.37999 13.7305V13.7302ZM7.49714 16.3363C7.87059 16.1238 8.00114 15.6492 7.78904 15.2758C7.57659 14.9023 7.10199 14.7718 6.72854 14.9839C6.72539 14.9856 6.72259 14.9874 6.71944 14.9891C6.34879 15.2065 6.22454 15.6828 6.44189 16.0535C6.65714 16.4206 7.12754 16.5466 7.49749 16.3363H7.49714Z" fill="#999999"/>
<path d="M21.0423 5.71304C21.1952 5.57584 21.3751 5.47189 21.5704 5.40784C21.6835 5.54959 21.855 5.63184 22.0363 5.63184C22.2176 5.63184 22.3891 5.54959 22.5021 5.40784C22.6974 5.47224 22.877 5.57619 23.0303 5.71304C22.9641 5.88174 22.9788 6.07109 23.0695 6.22789C23.1601 6.38504 23.3169 6.49214 23.4961 6.51944C23.5378 6.72069 23.5378 6.92824 23.4961 7.12914C23.3232 7.15574 23.1636 7.25724 23.0695 7.42069C22.9788 7.57749 22.9645 7.76719 23.0303 7.93589C22.8773 8.07309 22.6974 8.17669 22.5021 8.24109C22.3891 8.09934 22.2176 8.01709 22.0363 8.01744C21.855 8.01744 21.6835 8.09969 21.5704 8.24144C21.3751 8.17739 21.1956 8.07344 21.0423 7.93624C21.1084 7.76754 21.0941 7.57784 21.0031 7.42104C20.9124 7.26389 20.7556 7.15679 20.5764 7.12984C20.5344 6.92859 20.5344 6.72104 20.5764 6.51979C20.7556 6.49284 20.9128 6.38539 21.0031 6.22824C21.0937 6.07144 21.1081 5.88209 21.0423 5.71339V5.71304ZM22.2596 7.21139C22.4741 7.08924 22.5494 6.81624 22.4272 6.60169C22.3051 6.38714 22.0321 6.31189 21.8175 6.43404C21.8158 6.43509 21.814 6.43614 21.8123 6.43684C21.5991 6.56179 21.5277 6.83584 21.6527 7.04899C21.7766 7.26004 22.0468 7.33249 22.2596 7.21174V7.21139Z" fill="#666666"/>
<path d="M21.1111 5.78726C21.2641 5.65006 21.444 5.54611 21.6393 5.48206C21.7523 5.62381 21.9238 5.70606 22.1051 5.70606C22.2864 5.70606 22.4579 5.62381 22.571 5.48206C22.7663 5.54646 22.9458 5.65041 23.0991 5.78726C23.033 5.95596 23.0477 6.14531 23.1383 6.30211C23.229 6.45926 23.3858 6.56636 23.565 6.59366C23.6066 6.79491 23.6066 7.00246 23.565 7.20336C23.3921 7.22996 23.2325 7.33146 23.1383 7.49491C23.0477 7.65171 23.0333 7.84141 23.0991 8.01011C22.9462 8.14731 22.7663 8.25091 22.571 8.31531C22.4579 8.17356 22.2864 8.09131 22.1051 8.09166C21.9238 8.09166 21.7523 8.17391 21.6393 8.31566C21.444 8.25161 21.2644 8.14766 21.1111 8.01046C21.1773 7.84176 21.1629 7.65206 21.0719 7.49526C20.9813 7.33811 20.8245 7.23101 20.6453 7.20406C20.6033 7.00281 20.6033 6.79526 20.6453 6.59401C20.8245 6.56706 20.9816 6.45961 21.0719 6.30246C21.1626 6.14566 21.1769 5.95631 21.1111 5.78761V5.78726ZM22.3284 7.28561C22.543 7.16346 22.6182 6.89046 22.4961 6.67591C22.3739 6.46136 22.1009 6.38611 21.8864 6.50826C21.8846 6.50931 21.8829 6.51036 21.8811 6.51106C21.668 6.63601 21.5966 6.91006 21.7215 7.12321C21.8454 7.33426 22.1156 7.40671 22.3284 7.28596V7.28561Z" fill="#999999"/>
</g>
<defs>
<clipPath id="clip0_150_2523">
<rect width="28" height="28" fill="white"/>
</clipPath>
</defs>
</svg>
