<svg width="24" height="24" viewBox="0 0 24 24" fill="none" xmlns="http://www.w3.org/2000/svg">
<g clip-path="url(#clip0_103_450)">
<path d="M10.57 2H2.85C2.38056 2 2 2.38056 2 2.85V10.61C2 11.0794 2.38056 11.46 2.85 11.46H10.57C11.0394 11.46 11.42 11.0794 11.42 10.61V2.85C11.42 2.38056 11.0394 2 10.57 2Z" fill="#6A53F7"/>
<path d="M21.15 2H13.43C12.9606 2 12.58 2.38056 12.58 2.85V10.61C12.58 11.0794 12.9606 11.46 13.43 11.46H21.15C21.6194 11.46 22 11.0794 22 10.61V2.85C22 2.38056 21.6194 2 21.15 2Z" fill="#6A53F7"/>
<path d="M10.57 12.54H2.85C2.38056 12.54 2 12.9206 2 13.39V21.15C2 21.6195 2.38056 22 2.85 22H10.57C11.0394 22 11.42 21.6195 11.42 21.15V13.39C11.42 12.9206 11.0394 12.54 10.57 12.54Z" fill="#6A53F7"/>
<path d="M21.15 12.54H13.43C12.9606 12.54 12.58 12.9206 12.58 13.39V21.15C12.58 21.6195 12.9606 22 13.43 22H21.15C21.6194 22 22 21.6195 22 21.15V13.39C22 12.9206 21.6194 12.54 21.15 12.54Z" fill="#6A53F7"/>
</g>
<defs>
<clipPath id="clip0_103_450">
<rect width="24" height="24" fill="white"/>
</clipPath>
</defs>
</svg>
