<svg width="24" height="24" viewBox="0 0 24 24" fill="none" xmlns="http://www.w3.org/2000/svg">
<rect width="24" height="24" fill="#FDFDFF"/>
<g clip-path="url(#clip0_150_1350)">
<path d="M5.33325 9.99601C5.3329 9.47081 5.43615 8.9507 5.6371 8.46546C5.83804 7.98023 6.13273 7.53939 6.50429 7.16821C6.87584 6.79702 7.31697 6.50278 7.80241 6.30232C8.28784 6.10186 8.80806 5.99913 9.33325 6.00001H14.6666C16.8753 6.00001 18.6666 7.79667 18.6666 9.99601V18H9.33325C7.12459 18 5.33325 16.2033 5.33325 14.004V9.99601ZM17.3333 16.6667V9.99601C17.3315 9.28967 17.0498 8.61283 16.55 8.11375C16.0502 7.61467 15.3729 7.33404 14.6666 7.33334H9.33325C8.98315 7.33246 8.63632 7.4007 8.31265 7.53416C7.98898 7.66761 7.69484 7.86364 7.44709 8.11102C7.19935 8.35839 7.00287 8.65224 6.86894 8.97571C6.735 9.29918 6.66623 9.6459 6.66659 9.99601V14.004C6.66835 14.7103 6.95 15.3872 7.44982 15.8863C7.94965 16.3853 8.62692 16.666 9.33325 16.6667H17.3333ZM13.3333 11.3333H14.6666V12.6667H13.3333V11.3333ZM9.33325 11.3333H10.6666V12.6667H9.33325V11.3333Z" fill="#CFCFCF"/>
</g>
<defs>
<clipPath id="clip0_150_1350">
<rect width="16" height="16" fill="white" transform="translate(4 4)"/>
</clipPath>
</defs>
</svg>
