<svg width="24" height="24" viewBox="0 0 24 24" fill="none" xmlns="http://www.w3.org/2000/svg">
<rect width="24" height="24" fill="#FDFDFF"/>
<g clip-path="url(#clip0_345_1913)">
<path d="M5.3335 9.99601C5.33315 9.47081 5.4364 8.9507 5.63734 8.46546C5.83829 7.98023 6.13297 7.53939 6.50453 7.16821C6.87609 6.79702 7.31721 6.50278 7.80265 6.30232C8.28809 6.10186 8.8083 5.99913 9.3335 6.00001H14.6668C16.8755 6.00001 18.6668 7.79667 18.6668 9.99601V18H9.3335C7.12483 18 5.3335 16.2033 5.3335 14.004V9.99601ZM17.3335 16.6667V9.99601C17.3317 9.28967 17.0501 8.61283 16.5503 8.11375C16.0504 7.61467 15.3732 7.33404 14.6668 7.33334H9.3335C8.9834 7.33246 8.63657 7.4007 8.31289 7.53416C7.98922 7.66761 7.69508 7.86364 7.44734 8.11102C7.19959 8.35839 7.00312 8.65224 6.86918 8.97571C6.73524 9.29918 6.66648 9.6459 6.66683 9.99601V14.004C6.66859 14.7103 6.95024 15.3872 7.45007 15.8863C7.9499 16.3853 8.62716 16.666 9.3335 16.6667H17.3335ZM13.3335 11.3333H14.6668V12.6667H13.3335V11.3333ZM9.3335 11.3333H10.6668V12.6667H9.3335V11.3333Z" fill="#CFCFCF"/>
</g>
<defs>
<clipPath id="clip0_345_1913">
<rect width="16" height="16" fill="white" transform="translate(4 4)"/>
</clipPath>
</defs>
</svg>
