<svg width="20" height="20" viewBox="0 0 20 20" fill="none" xmlns="http://www.w3.org/2000/svg">
<g clip-path="url(#clip0_493_2999)">
<path d="M17.5001 12.5V15H20.0001V16.6667H17.5001V19.1667H15.8334V16.6667H13.3334V15H15.8334V12.5H17.5001ZM17.5069 2.5C17.9634 2.5 18.3334 2.87079 18.3334 3.32783V10.8333H16.6667V4.16667H3.33341V15.8325L11.6667 7.5L14.1667 10V12.3575L11.6667 9.857L5.68925 15.8333H11.6667V17.5H2.49325C2.03679 17.5 1.66675 17.1292 1.66675 16.6722V3.32783C1.66675 2.87063 2.04617 2.5 2.49325 2.5H17.5069ZM6.66675 5.83333C7.58722 5.83333 8.33342 6.57952 8.33342 7.5C8.33342 8.4205 7.58722 9.16667 6.66675 9.16667C5.74627 9.16667 5.00008 8.4205 5.00008 7.5C5.00008 6.57952 5.74627 5.83333 6.66675 5.83333Z" fill="#3D3D3D"/>
</g>
<defs>
<clipPath id="clip0_493_2999">
<rect width="20" height="20" fill="white"/>
</clipPath>
</defs>
</svg>
