<svg width="24" height="24" viewBox="0 0 24 24" fill="none" xmlns="http://www.w3.org/2000/svg">
<g clip-path="url(#clip0_50_1458)">
<path d="M7.29998 2H2.65998C2.28443 2 1.97998 2.30445 1.97998 2.68V10.76C1.97998 11.1356 2.28443 11.44 2.65998 11.44H7.29998C7.67553 11.44 7.97998 11.1356 7.97998 10.76V2.68C7.97998 2.30445 7.67553 2 7.29998 2Z" fill="#6A53F7"/>
<path d="M14.32 2H9.68C9.30445 2 9 2.30445 9 2.68V10.76C9 11.1356 9.30445 11.44 9.68 11.44H14.32C14.6956 11.44 15 11.1356 15 10.76V2.68C15 2.30445 14.6956 2 14.32 2Z" fill="#6A53F7"/>
<path d="M21.34 2H16.7C16.3245 2 16.02 2.30445 16.02 2.68V10.76C16.02 11.1356 16.3245 11.44 16.7 11.44H21.34C21.7156 11.44 22.02 11.1356 22.02 10.76V2.68C22.02 2.30445 21.7156 2 21.34 2Z" fill="#6A53F7"/>
<path d="M7.29998 12.56H2.65998C2.28443 12.56 1.97998 12.8644 1.97998 13.24V21.32C1.97998 21.6956 2.28443 22 2.65998 22H7.29998C7.67553 22 7.97998 21.6956 7.97998 21.32V13.24C7.97998 12.8644 7.67553 12.56 7.29998 12.56Z" fill="#6A53F7"/>
<path d="M14.32 12.56H9.68C9.30445 12.56 9 12.8644 9 13.24V21.32C9 21.6956 9.30445 22 9.68 22H14.32C14.6956 22 15 21.6956 15 21.32V13.24C15 12.8644 14.6956 12.56 14.32 12.56Z" fill="#6A53F7"/>
<path d="M21.34 12.56H16.7C16.3245 12.56 16.02 12.8644 16.02 13.24V21.32C16.02 21.6956 16.3245 22 16.7 22H21.34C21.7156 22 22.02 21.6956 22.02 21.32V13.24C22.02 12.8644 21.7156 12.56 21.34 12.56Z" fill="#6A53F7"/>
</g>
<defs>
<clipPath id="clip0_50_1458">
<rect width="24" height="24" fill="white"/>
</clipPath>
</defs>
</svg>
