<svg width="28" height="28" viewBox="0 0 28 28" fill="none" xmlns="http://www.w3.org/2000/svg">
<g clip-path="url(#clip0_150_2580)">
<path d="M18.325 4.02499H8.09239C7.43865 4.02499 6.90869 4.55495 6.90869 5.20869V22.7913C6.90869 23.445 7.43865 23.975 8.09239 23.975H18.325C18.9787 23.975 19.5087 23.445 19.5087 22.7913V5.20869C19.5087 4.55495 18.9787 4.02499 18.325 4.02499Z" fill="#B5B5B5"/>
<path d="M17.9804 4.69559H8.43628C7.82642 4.69559 7.33203 5.18998 7.33203 5.79984V22.2001C7.33203 22.81 7.82642 23.3044 8.43628 23.3044H17.9804C18.5903 23.3044 19.0847 22.81 19.0847 22.2001V5.79984C19.0847 5.18998 18.5903 4.69559 17.9804 4.69559Z" fill="#444444"/>
<path d="M14.0198 5.02286H12.3979C12.2272 5.02286 12.0889 5.16122 12.0889 5.33191V5.34381C12.0889 5.51449 12.2272 5.65286 12.3979 5.65286H14.0198C14.1905 5.65286 14.3289 5.51449 14.3289 5.34381V5.33191C14.3289 5.16122 14.1905 5.02286 14.0198 5.02286Z" fill="#303030"/>
<path d="M22.5554 6.71721H14.1039C13.5982 6.71721 13.188 7.12741 13.188 7.63316V12.2402C13.188 12.746 13.5982 13.1562 14.1039 13.1562H14.1764C14.2289 13.6696 14.176 14.2744 14.176 14.2744C14.5411 14.1796 14.9614 13.621 15.2565 13.1562H22.555C23.0608 13.1562 23.471 12.746 23.471 12.2402V7.63281C23.471 7.12706 23.0608 6.71686 22.555 6.71686L22.5554 6.71721Z" fill="#9889F9"/>
<path d="M21.3141 9.91306L19.883 11.1748L19.5253 10.8595L20.5987 9.91306L19.5253 8.96666L19.883 8.65131L21.3141 9.91306ZM15.9581 9.91306L17.0315 10.8595L16.6738 11.1748L15.2427 9.91306L16.6738 8.65131L17.0312 8.96666L15.9581 9.91306ZM17.7189 11.9207H17.1806L18.8382 7.90546H19.3765L17.7189 11.9207Z" fill="#33303D"/>
</g>
<defs>
<clipPath id="clip0_150_2580">
<rect width="28" height="28" fill="white"/>
</clipPath>
</defs>
</svg>
