<svg width="28" height="28" viewBox="0 0 28 28" fill="none" xmlns="http://www.w3.org/2000/svg">
<g clip-path="url(#clip0_150_2576)">
<path d="M23.4605 15.0412C23.4605 15.0412 23.4585 15.0412 23.4577 15.0412L23.0519 15.0366C22.9132 15.0352 22.9177 14.5253 23.0572 14.5258L23.458 14.5301C23.4638 14.5301 23.475 14.5295 23.4884 14.529C23.5445 14.5267 23.5779 14.5255 23.5997 14.525C23.6033 14.5244 23.6072 14.5236 23.6114 14.523C23.6259 14.5043 23.6479 14.4552 23.6482 14.3817C23.6482 14.3329 23.6002 14.2744 23.5757 14.2582C23.4597 14.1811 23.4267 14.023 23.5026 13.9047C23.5782 13.7866 23.7338 13.7531 23.8499 13.8303C23.9997 13.9296 24.1506 14.1391 24.1503 14.3828C24.1497 14.7222 23.9581 14.9932 23.6948 15.0267C23.6917 15.027 23.6895 15.0275 23.6878 15.0281C23.6739 15.0312 23.6477 15.0369 23.6139 15.0358C23.5938 15.0363 23.5425 15.0383 23.5074 15.0395C23.4825 15.0403 23.4638 15.0409 23.4616 15.0409H23.4605V15.0412ZM23.588 15.0338C23.588 15.0338 23.5899 15.0338 23.5908 15.0341C23.5899 15.0341 23.5888 15.0341 23.588 15.0338Z" fill="#E26F7D"/>
<path d="M16.7404 8.0448H11.5118C10.8862 8.0448 10.282 8.1376 9.71162 8.31013L8.76075 7.49685C8.30163 7.10411 7.59677 7.3666 7.49524 7.96819L7.18758 9.7897C6.5399 10.41 6.02081 11.168 5.67605 12.0176H4.70593C4.24374 12.0176 3.86914 12.3987 3.86914 12.8689V16.8416C3.86914 17.3118 4.24374 17.6929 4.70593 17.6929H5.67605C6.35079 19.3555 7.69188 20.6671 9.36073 21.2826V22.1822C9.36073 22.4957 9.61037 22.7497 9.91859 22.7497H11.2575C11.5657 22.7497 11.8153 22.4957 11.8153 22.1822V21.6657H16.7407C16.9705 21.6657 17.1976 21.6529 17.4213 21.6285V22.1824C17.4213 22.496 17.6709 22.75 17.9791 22.75H19.318C19.6262 22.75 19.8759 22.496 19.8759 22.1824V20.8204C19.8759 20.8204 19.8759 20.8195 19.8759 20.8189C21.7737 19.7117 23.0523 17.6302 23.0523 15.2449V14.4659C23.0523 10.9197 20.2265 8.04509 16.741 8.04509L16.7404 8.0448Z" fill="#F5727E"/>
<path d="M4.68689 12.0204C4.2247 12.0204 3.8501 12.4015 3.8501 12.8718V16.8445C3.8501 17.3147 4.2247 17.6958 4.68689 17.6958C4.52623 16.9095 4.3915 15.9109 4.40015 14.7531C4.40796 13.6882 4.53515 12.7634 4.68689 12.0204Z" fill="#E26F7D"/>
<path d="M7.78202 20.4226C8.82884 21.2081 10.1228 21.6723 11.5233 21.6723H16.7519C18.1764 21.6723 19.4904 21.1922 20.5467 20.3823C18.9247 20.7963 16.7639 21.1822 14.2069 21.1944C11.6128 21.2066 9.42101 20.8301 7.78174 20.4229L7.78202 20.4226Z" fill="#EF7584"/>
<path d="M6.86501 13.2156C7.13429 13.2156 7.35258 12.9935 7.35258 12.7196C7.35258 12.4457 7.13429 12.2236 6.86501 12.2236C6.59573 12.2236 6.37744 12.4457 6.37744 12.7196C6.37744 12.9935 6.59573 13.2156 6.86501 13.2156Z" fill="#3D3D3D"/>
<path d="M18.1593 8.8025C18.1077 6.83144 16.5672 5.25 14.6741 5.25C12.781 5.25 11.2084 6.86464 11.188 8.86465C12.1377 8.64302 14.6955 8.20006 18.1593 8.8025Z" fill="#EFAE59"/>
<path d="M18.0895 8.81157C18.0379 6.8984 16.4973 5.36349 14.6042 5.36349C12.7111 5.36349 11.1385 6.93075 11.1182 8.87201C12.0679 8.65691 14.6257 8.22672 18.0895 8.81157Z" fill="#FFCB7C"/>
<path d="M17.6093 8.7239C17.5658 7.17765 16.2634 5.93701 14.6632 5.93701C13.063 5.93701 11.7336 7.20376 11.7163 8.77271C12.5191 8.59876 14.6813 8.25115 17.6093 8.7239Z" fill="#F4BD76"/>
<path d="M10.8749 9.03856L10.8247 8.87625C10.8559 8.86632 11.6082 8.62852 12.9089 8.50167C14.1069 8.38505 16.0117 8.34759 18.2808 8.83113L18.2465 8.9977C15.9978 8.5187 14.1113 8.55559 12.9248 8.67108C11.6414 8.79594 10.8824 9.03601 10.8749 9.03856Z" fill="#CE6778"/>
</g>
<defs>
<clipPath id="clip0_150_2576">
<rect width="28" height="28" fill="white"/>
</clipPath>
</defs>
</svg>
