<svg width="84" height="24" viewBox="0 0 84 24" fill="none" xmlns="http://www.w3.org/2000/svg">
<g clip-path="url(#clip0_110_667)">
<path d="M13.5056 3.51562H9.77222C6.25196 3.51562 3.39824 6.45375 3.39824 10.0781V19.5469C3.39824 20.0646 3.80595 20.4844 4.30881 20.4844H13.5056C17.0258 20.4844 19.8795 17.5463 19.8795 13.9219V10.0781C19.8795 6.45375 17.0258 3.51562 13.5056 3.51562ZM12.7054 9.38977C13.0726 9.38977 13.3703 9.83016 13.3703 10.3732C13.3703 10.9162 13.0726 11.3566 12.7054 11.3566C12.3382 11.3566 12.0405 10.9162 12.0405 10.3732C12.0405 9.83016 12.3382 9.38977 12.7054 9.38977ZM10.2145 9.38977C10.5817 9.38977 10.8795 9.83016 10.8795 10.3732C10.8795 10.9162 10.5817 11.3566 10.2145 11.3566C9.84734 11.3566 9.54959 10.9162 9.54959 10.3732C9.54959 9.83016 9.84734 9.38977 10.2145 9.38977ZM11.4745 15.9455C8.94634 15.9455 6.88982 13.4749 6.88982 10.4384H7.63421C7.63421 13.0275 9.357 15.1341 11.4745 15.1341C13.5921 15.1341 15.3149 13.0275 15.3149 10.4384H16.0592C16.0592 13.4749 14.0025 15.9455 11.4745 15.9455ZM15.9595 13.5809C15.764 13.5855 15.5776 13.5483 15.4039 13.4831C15.5309 13.2563 15.6431 13.0172 15.741 12.768C15.8057 12.7847 15.8721 12.7959 15.942 12.7943C16.3634 12.7845 16.6982 12.4235 16.6884 11.9899C16.6805 11.6341 16.4421 11.3419 16.1246 11.2523C16.1569 10.9927 16.1735 10.7276 16.1744 10.4576C16.8844 10.5788 17.4353 11.2048 17.4524 11.9719C17.4715 12.8393 16.8018 13.5609 15.9593 13.5809H15.9595Z" fill="#9C9C9C"/>
<path d="M23.3299 17.2125V6.69867H26.865C29.9218 6.71344 31.7618 8.67375 31.7618 11.9557C31.7618 15.2377 29.9218 17.2127 26.8069 17.2127H23.3299V17.2125ZM26.72 15.5789C28.8496 15.5789 29.9363 14.3611 29.9363 11.9555C29.9363 9.54984 28.8498 8.34679 26.7491 8.33203H25.1554V15.5789H26.72Z" fill="#9C9C9C"/>
<path d="M32.1964 17.2125L35.7892 6.69867H38.0782L41.6711 17.2125H39.7008L38.8606 14.6285H34.9923L34.1375 17.2125H32.1961H32.1964ZM38.3536 13.0842L36.9773 8.86687H36.8903L35.4995 13.0842H38.3536Z" fill="#9C9C9C"/>
<path d="M45.177 6.69867L48.2194 14.3316H48.3353L51.3777 6.69867H53.6378V17.2125H51.8703V9.99539H51.7834L48.9438 17.1827H47.6109L44.7713 9.96562H44.6844V17.2125H42.9169V6.69867H45.177Z" fill="#9C9C9C"/>
<path d="M59.9831 17.3609C57.2885 17.3609 55.2891 15.3413 55.2891 11.9555C55.2891 8.5697 57.2885 6.56486 59.9831 6.57986C62.6633 6.56509 64.6916 8.5697 64.677 11.9555C64.6916 15.3563 62.6633 17.3609 59.9831 17.3609ZM59.9831 15.668C61.6635 15.6532 62.8372 14.3611 62.8227 11.9555C62.8372 9.56462 61.6637 8.25775 59.9831 8.27275C58.3169 8.25798 57.1291 9.56462 57.1435 11.9555C57.1289 14.3611 58.3169 15.6532 59.9831 15.668Z" fill="#9C9C9C"/>
<path d="M68.1536 17.2125H66.3281V6.69867H68.1536V17.2125Z" fill="#9C9C9C"/>
<path d="M72.326 6.69867L75.3685 14.3316H75.4844L78.5268 6.69867H80.7868V17.2125H79.0194V9.99539H78.9324L76.0928 17.1827H74.76L71.9204 9.96562H71.8334V17.2125H70.066V6.69867H72.326Z" fill="#9C9C9C"/>
</g>
<defs>
<clipPath id="clip0_110_667">
<rect width="84" height="24" fill="white"/>
</clipPath>
</defs>
</svg>
