<svg width="210" height="60" viewBox="0 0 210 60" fill="none" xmlns="http://www.w3.org/2000/svg">
<g clip-path="url(#clip0_365_2007)">
<path d="M33.7639 8.78906H24.4306C15.6299 8.78906 8.49561 16.1344 8.49561 25.1953V48.8672C8.49561 50.1615 9.51487 51.2109 10.772 51.2109H33.7639C42.5645 51.2109 49.6989 43.8656 49.6989 34.8047V25.1953C49.6989 16.1344 42.5645 8.78906 33.7639 8.78906ZM31.7635 23.4744C32.6815 23.4744 33.4259 24.5754 33.4259 25.933C33.4259 27.2906 32.6815 28.3916 31.7635 28.3916C30.8455 28.3916 30.1011 27.2906 30.1011 25.933C30.1011 24.5754 30.8455 23.4744 31.7635 23.4744ZM25.5363 23.4744C26.4543 23.4744 27.1987 24.5754 27.1987 25.933C27.1987 27.2906 26.4543 28.3916 25.5363 28.3916C24.6184 28.3916 23.874 27.2906 23.874 25.933C23.874 24.5754 24.6184 23.4744 25.5363 23.4744ZM28.6863 39.8637C22.3658 39.8637 17.2245 33.6873 17.2245 26.0959H19.0855C19.0855 32.5687 23.3925 37.8352 28.6863 37.8352C33.9802 37.8352 38.2871 32.5687 38.2871 26.0959H40.1481C40.1481 33.6873 35.0063 39.8637 28.6863 39.8637ZM39.8989 33.9521C39.41 33.9639 38.9439 33.8707 38.5097 33.7078C38.8272 33.1406 39.1078 32.543 39.3525 31.9201C39.5141 31.9617 39.6803 31.9898 39.855 31.9857C40.9085 31.9611 41.7456 31.0588 41.7211 29.9748C41.7012 29.0854 41.1054 28.3547 40.3115 28.1309C40.3923 27.4816 40.4338 26.8189 40.4361 26.1439C42.2111 26.4469 43.5884 28.0119 43.6311 29.9297C43.6789 32.0982 42.0045 33.9023 39.8983 33.9521H39.8989Z" fill="#491DC5"/>
<path d="M58.3248 43.0312V16.7467H67.1625C74.8044 16.7836 79.4045 21.6844 79.4045 29.8893C79.4045 38.0941 74.8044 43.0318 67.0173 43.0318H58.3248V43.0312ZM66.8 38.9473C72.1239 38.9473 74.8408 35.9027 74.8408 29.8887C74.8408 23.8746 72.1245 20.867 66.8728 20.8301H62.8885V38.9473H66.8Z" fill="#491DC5"/>
<path d="M80.4909 43.0312L89.4731 16.7467H95.1955L104.178 43.0312H99.2521L97.1515 36.5713H87.4807L85.3437 43.0312H80.4904H80.4909ZM95.8841 32.7105L92.4433 22.1672H92.2259L88.7486 32.7105H95.8841Z" fill="#491DC5"/>
<path d="M112.942 16.7467L120.549 35.8289H120.838L128.444 16.7467H134.094V43.0312H129.676V24.9885H129.458L122.359 42.9568H119.027L111.928 24.9141H111.711V43.0312H107.292V16.7467H112.942Z" fill="#491DC5"/>
<path d="M149.958 43.4021C143.221 43.4021 138.223 38.3531 138.223 29.8887C138.223 21.4242 143.221 16.4121 149.958 16.4496C156.658 16.4127 161.729 21.4242 161.693 29.8887C161.729 38.3906 156.658 43.4021 149.958 43.4021ZM149.958 39.1699C154.159 39.133 157.093 35.9027 157.057 29.8887C157.093 23.9115 154.159 20.6443 149.958 20.6818C145.792 20.6449 142.823 23.9115 142.859 29.8887C142.822 35.9027 145.792 39.133 149.958 39.1699Z" fill="#491DC5"/>
<path d="M170.384 43.0312H165.82V16.7467H170.384V43.0312Z" fill="#491DC5"/>
<path d="M180.815 16.7467L188.421 35.8289H188.711L196.317 16.7467H201.967V43.0312H197.549V24.9885H197.331L190.232 42.9568H186.9L179.801 24.9141H179.584V43.0312H175.165V16.7467H180.815Z" fill="#491DC5"/>
</g>
<defs>
<clipPath id="clip0_365_2007">
<rect width="210" height="60" fill="white"/>
</clipPath>
</defs>
</svg>
