<svg width="298" height="56" viewBox="0 0 298 56" fill="none" xmlns="http://www.w3.org/2000/svg">
<g filter="url(#filter0_d_365_2028)">
<rect x="8" y="6" width="282" height="40" rx="2" fill="black"/>
</g>
<path d="M114.334 22.373L111.36 31H109.562L113.309 21.0469H114.457L114.334 22.373ZM116.822 31L113.842 22.373L113.712 21.0469H114.867L118.627 31H116.822ZM116.679 27.3086V28.6689H111.265V27.3086H116.679ZM121.108 25.0254V33.8438H119.461V23.6035H120.979L121.108 25.0254ZM125.928 27.2334V27.377C125.928 27.9147 125.864 28.4137 125.736 28.874C125.613 29.3298 125.429 29.7285 125.183 30.0703C124.941 30.4076 124.643 30.6696 124.287 30.8564C123.932 31.0433 123.521 31.1367 123.057 31.1367C122.596 31.1367 122.193 31.0524 121.847 30.8838C121.505 30.7106 121.215 30.4668 120.979 30.1523C120.742 29.8379 120.55 29.4688 120.404 29.0449C120.263 28.6165 120.163 28.1471 120.104 27.6367V27.083C120.163 26.5407 120.263 26.0485 120.404 25.6064C120.55 25.1644 120.742 24.7839 120.979 24.4648C121.215 24.1458 121.505 23.8997 121.847 23.7266C122.188 23.5534 122.587 23.4668 123.043 23.4668C123.508 23.4668 123.92 23.5579 124.28 23.7402C124.64 23.918 124.943 24.1732 125.189 24.5059C125.436 24.834 125.62 25.2305 125.743 25.6953C125.866 26.1556 125.928 26.6683 125.928 27.2334ZM124.28 27.377V27.2334C124.28 26.8916 124.248 26.5749 124.185 26.2832C124.121 25.987 124.021 25.7272 123.884 25.5039C123.747 25.2806 123.572 25.1074 123.357 24.9844C123.148 24.8568 122.895 24.793 122.599 24.793C122.307 24.793 122.056 24.8431 121.847 24.9434C121.637 25.0391 121.462 25.1735 121.32 25.3467C121.179 25.5199 121.07 25.7227 120.992 25.9551C120.915 26.1829 120.86 26.4313 120.828 26.7002V28.0264C120.883 28.3545 120.976 28.6553 121.108 28.9287C121.241 29.2021 121.427 29.4209 121.669 29.585C121.915 29.7445 122.229 29.8242 122.612 29.8242C122.909 29.8242 123.161 29.7604 123.371 29.6328C123.581 29.5052 123.752 29.3298 123.884 29.1064C124.021 28.8786 124.121 28.6165 124.185 28.3203C124.248 28.0241 124.28 27.7096 124.28 27.377ZM128.983 25.0254V33.8438H127.336V23.6035H128.854L128.983 25.0254ZM133.803 27.2334V27.377C133.803 27.9147 133.739 28.4137 133.611 28.874C133.488 29.3298 133.304 29.7285 133.058 30.0703C132.816 30.4076 132.518 30.6696 132.162 30.8564C131.807 31.0433 131.396 31.1367 130.932 31.1367C130.471 31.1367 130.068 31.0524 129.722 30.8838C129.38 30.7106 129.09 30.4668 128.854 30.1523C128.617 29.8379 128.425 29.4688 128.279 29.0449C128.138 28.6165 128.038 28.1471 127.979 27.6367V27.083C128.038 26.5407 128.138 26.0485 128.279 25.6064C128.425 25.1644 128.617 24.7839 128.854 24.4648C129.09 24.1458 129.38 23.8997 129.722 23.7266C130.063 23.5534 130.462 23.4668 130.918 23.4668C131.383 23.4668 131.795 23.5579 132.155 23.7402C132.515 23.918 132.818 24.1732 133.064 24.5059C133.311 24.834 133.495 25.2305 133.618 25.6953C133.741 26.1556 133.803 26.6683 133.803 27.2334ZM132.155 27.377V27.2334C132.155 26.8916 132.123 26.5749 132.06 26.2832C131.996 25.987 131.896 25.7272 131.759 25.5039C131.622 25.2806 131.447 25.1074 131.232 24.9844C131.023 24.8568 130.77 24.793 130.474 24.793C130.182 24.793 129.931 24.8431 129.722 24.9434C129.512 25.0391 129.337 25.1735 129.195 25.3467C129.054 25.5199 128.945 25.7227 128.867 25.9551C128.79 26.1829 128.735 26.4313 128.703 26.7002V28.0264C128.758 28.3545 128.851 28.6553 128.983 28.9287C129.116 29.2021 129.302 29.4209 129.544 29.585C129.79 29.7445 130.104 29.8242 130.487 29.8242C130.784 29.8242 131.036 29.7604 131.246 29.6328C131.456 29.5052 131.627 29.3298 131.759 29.1064C131.896 28.8786 131.996 28.6165 132.06 28.3203C132.123 28.0241 132.155 27.7096 132.155 27.377ZM136.968 20.5V31H135.313V20.5H136.968ZM142.033 31.1367C141.486 31.1367 140.992 31.0479 140.55 30.8701C140.112 30.6878 139.739 30.4349 139.429 30.1113C139.123 29.7878 138.889 29.4072 138.725 28.9697C138.561 28.5322 138.479 28.0605 138.479 27.5547V27.2812C138.479 26.7025 138.563 26.1784 138.731 25.709C138.9 25.2396 139.135 24.8385 139.436 24.5059C139.736 24.1686 140.092 23.9111 140.502 23.7334C140.912 23.5557 141.356 23.4668 141.835 23.4668C142.364 23.4668 142.826 23.5557 143.223 23.7334C143.619 23.9111 143.947 24.1618 144.207 24.4854C144.471 24.8044 144.667 25.1849 144.795 25.627C144.927 26.069 144.993 26.5566 144.993 27.0898V27.7939H139.278V26.6113H143.366V26.4814C143.357 26.1852 143.298 25.9072 143.188 25.6475C143.084 25.3877 142.922 25.1781 142.703 25.0186C142.484 24.859 142.193 24.7793 141.828 24.7793C141.555 24.7793 141.311 24.8385 141.097 24.957C140.887 25.071 140.712 25.2373 140.57 25.4561C140.429 25.6748 140.32 25.9391 140.242 26.249C140.169 26.5544 140.133 26.8984 140.133 27.2812V27.5547C140.133 27.8783 140.176 28.179 140.263 28.457C140.354 28.7305 140.486 28.9697 140.659 29.1748C140.832 29.3799 141.042 29.5417 141.288 29.6602C141.534 29.7741 141.814 29.8311 142.129 29.8311C142.525 29.8311 142.879 29.7513 143.188 29.5918C143.498 29.4323 143.767 29.2067 143.995 28.915L144.863 29.7559C144.704 29.9883 144.496 30.2116 144.241 30.4258C143.986 30.6354 143.674 30.8063 143.305 30.9385C142.94 31.0706 142.516 31.1367 142.033 31.1367ZM155.917 29.544V27.178H159.935V26.254H152.207V24.224H159.641V20.402H151.045V21.34H158.521V23.3H151.073V27.178H154.755V29.544H149.645V30.482H161.055V29.544H155.917ZM171.246 22.068C171.246 23.622 171.246 25.498 170.742 28.06L171.89 28.186C172.38 25.47 172.38 23.664 172.38 22.068V20.808H163.77V21.746H171.246V22.068ZM162.552 29.25V30.202H173.906V29.25H162.552ZM185.721 19.492H184.573V28.662H185.721V19.492ZM176.831 23.44C176.831 22.222 177.755 21.354 178.973 21.354C180.219 21.354 181.143 22.222 181.143 23.44C181.143 24.686 180.219 25.554 178.973 25.554C177.755 25.554 176.831 24.686 176.831 23.44ZM182.263 23.44C182.263 21.634 180.849 20.36 178.973 20.36C177.111 20.36 175.711 21.634 175.711 23.44C175.711 25.26 177.111 26.548 178.973 26.548C180.849 26.548 182.263 25.26 182.263 23.44ZM178.791 30.818V27.724H177.643V31.756H186.099V30.818H178.791Z" fill="white"/>
<g clip-path="url(#clip0_365_2028)">
<path d="M30.545 21.155C31.355 21.155 32.375 20.6075 32.9825 19.8725C33.53 19.2125 33.935 18.2825 33.935 17.3525C33.935 17.225 33.92 17.0975 33.8975 17C32.99 17.0375 31.91 17.6075 31.2575 18.3725C30.74 18.9575 30.275 19.8725 30.275 20.81C30.275 20.945 30.2975 21.0875 30.3125 21.1325C30.3725 21.1475 30.4625 21.155 30.5525 21.155H30.545ZM27.6875 35C28.7975 35 29.2925 34.2575 30.6725 34.2575C32.0525 34.2575 32.39 34.9775 33.6275 34.9775C34.865 34.9775 35.6525 33.8525 36.4175 32.7575C37.2725 31.4975 37.6325 30.26 37.655 30.2075C37.5725 30.185 35.255 29.2325 35.255 26.57C35.255 24.26 37.085 23.2175 37.19 23.135C35.975 21.395 34.1375 21.35 33.6275 21.35C32.2625 21.35 31.1525 22.175 30.455 22.175C29.6975 22.175 28.7075 21.395 27.5225 21.395C25.28 21.395 23 23.2475 23 26.75C23 28.925 23.8475 31.2275 24.89 32.7125C25.7825 33.9725 26.5625 35 27.68 35H27.6875Z" fill="white"/>
</g>
<defs>
<filter id="filter0_d_365_2028" x="0" y="0" width="298" height="56" filterUnits="userSpaceOnUse" color-interpolation-filters="sRGB">
<feFlood flood-opacity="0" result="BackgroundImageFix"/>
<feColorMatrix in="SourceAlpha" type="matrix" values="0 0 0 0 0 0 0 0 0 0 0 0 0 0 0 0 0 0 127 0" result="hardAlpha"/>
<feOffset dy="2"/>
<feGaussianBlur stdDeviation="4"/>
<feComposite in2="hardAlpha" operator="out"/>
<feColorMatrix type="matrix" values="0 0 0 0 0 0 0 0 0 0 0 0 0 0 0 0 0 0 0.12 0"/>
<feBlend mode="normal" in2="BackgroundImageFix" result="effect1_dropShadow_365_2028"/>
<feBlend mode="normal" in="SourceGraphic" in2="effect1_dropShadow_365_2028" result="shape"/>
</filter>
<clipPath id="clip0_365_2028">
<rect width="24" height="24" fill="white" transform="translate(18 14)"/>
</clipPath>
</defs>
</svg>
