<svg width="24" height="24" viewBox="0 0 24 24" fill="none" xmlns="http://www.w3.org/2000/svg">
<g clip-path="url(#clip0_50_1459)">
<path d="M10.57 2H2.85C2.38056 2 2 2.38056 2 2.85V10.61C2 11.0794 2.38056 11.46 2.85 11.46H10.57C11.0394 11.46 11.42 11.0794 11.42 10.61V2.85C11.42 2.38056 11.0394 2 10.57 2Z" fill="#CFCFCF"/>
<path d="M21.1501 2H13.4301C12.9606 2 12.5801 2.38056 12.5801 2.85V10.61C12.5801 11.0794 12.9606 11.46 13.4301 11.46H21.1501C21.6195 11.46 22.0001 11.0794 22.0001 10.61V2.85C22.0001 2.38056 21.6195 2 21.1501 2Z" fill="#CFCFCF"/>
<path d="M10.57 12.54H2.85C2.38056 12.54 2 12.9205 2 13.39V21.15C2 21.6194 2.38056 22 2.85 22H10.57C11.0394 22 11.42 21.6194 11.42 21.15V13.39C11.42 12.9205 11.0394 12.54 10.57 12.54Z" fill="#CFCFCF"/>
<path d="M21.1501 12.54H13.4301C12.9606 12.54 12.5801 12.9205 12.5801 13.39V21.15C12.5801 21.6194 12.9606 22 13.4301 22H21.1501C21.6195 22 22.0001 21.6194 22.0001 21.15V13.39C22.0001 12.9205 21.6195 12.54 21.1501 12.54Z" fill="#CFCFCF"/>
</g>
<defs>
<clipPath id="clip0_50_1459">
<rect width="24" height="24" fill="white"/>
</clipPath>
</defs>
</svg>
