<svg width="28" height="28" viewBox="0 0 28 28" fill="none" xmlns="http://www.w3.org/2000/svg">
<g clip-path="url(#clip0_150_2541)">
<path d="M22.0499 5.16953H5.9499C5.37 5.16953 4.8999 5.63963 4.8999 6.21953V23.7195C4.8999 24.2994 5.37 24.7695 5.9499 24.7695H22.0499C22.6298 24.7695 23.0999 24.2994 23.0999 23.7195V6.21953C23.0999 5.63963 22.6298 5.16953 22.0499 5.16953Z" fill="#EFEFEF"/>
<path d="M22.0499 4.55981H5.9499C5.37 4.55981 4.8999 5.02992 4.8999 5.60981V23.1098C4.8999 23.6897 5.37 24.1598 5.9499 24.1598H22.0499C22.6298 24.1598 23.0999 23.6897 23.0999 23.1098V5.60981C23.0999 5.02992 22.6298 4.55981 22.0499 4.55981Z" fill="#F7F6F5"/>
<path d="M8.40186 24.1679H5.95186C5.37191 24.1679 4.90186 23.6978 4.90186 23.1179V20.6679C6.06841 21.8344 7.23531 23.0013 8.40186 24.1679Z" fill="#E8E8E8"/>
<path d="M8.41406 24.1724C7.24751 23.0059 6.08061 21.839 4.91406 20.6724H7.36406C7.94401 20.6724 8.41406 21.1425 8.41406 21.7224V24.1724Z" fill="#EFEFEF"/>
<path d="M5.5082 4.79572H22.4916C22.8273 4.79572 23.0999 5.06837 23.0999 5.40402V11.3757H4.8999V5.40402C4.8999 5.06837 5.17255 4.79572 5.5082 4.79572Z" fill="#D23E66"/>
<path d="M5.5082 4.55981H22.4916C22.8273 4.55981 23.0999 4.83246 23.0999 5.16811V11.1398H4.8999V5.16811C4.8999 4.83246 5.17255 4.55981 5.5082 4.55981Z" fill="#F73E66"/>
<path d="M8.86885 7.94082C9.44875 7.94082 9.91885 7.47072 9.91885 6.89082C9.91885 6.31092 9.44875 5.84082 8.86885 5.84082C8.28895 5.84082 7.81885 6.31092 7.81885 6.89082C7.81885 7.47072 8.28895 7.94082 8.86885 7.94082Z" fill="#CC365D"/>
<path d="M19.1311 7.94082C19.711 7.94082 20.1811 7.47072 20.1811 6.89082C20.1811 6.31092 19.711 5.84082 19.1311 5.84082C18.5512 5.84082 18.0811 6.31092 18.0811 6.89082C18.0811 7.47072 18.5512 7.94082 19.1311 7.94082Z" fill="#CC365D"/>
<path d="M8.89147 3.23053H8.88657C8.32736 3.23053 7.87402 3.68386 7.87402 4.24308V6.76798C7.87402 7.3272 8.32736 7.78053 8.88657 7.78053H8.89147C9.45069 7.78053 9.90402 7.3272 9.90402 6.76798V4.24308C9.90402 3.68386 9.45069 3.23053 8.89147 3.23053Z" fill="#3A3A3A"/>
<path d="M7.88086 6.76835V4.24345C7.88086 3.68415 8.33411 3.2309 8.89341 3.2309H8.89831C8.55916 4.41005 8.22001 5.5892 7.88086 6.76835Z" fill="#474747"/>
<path d="M19.1283 3.23053H19.1234C18.5642 3.23053 18.1108 3.68386 18.1108 4.24308V6.76798C18.1108 7.3272 18.5642 7.78053 19.1234 7.78053H19.1283C19.6875 7.78053 20.1408 7.3272 20.1408 6.76798V4.24308C20.1408 3.68386 19.6875 3.23053 19.1283 3.23053Z" fill="#3A3A3A"/>
<path d="M18.1172 6.76835V4.24345C18.1172 3.68415 18.5704 3.2309 19.1297 3.2309H19.1346C18.7955 4.41005 18.4563 5.5892 18.1172 6.76835Z" fill="#474747"/>
<path d="M11.914 9.05909C11.8622 9.05909 11.8367 9.03599 11.8367 8.99014V8.85819C11.7593 9.00169 11.5672 9.09619 11.3463 9.09619C10.9162 9.09619 10.6064 8.77769 10.6064 8.26704C10.6064 7.75639 10.9162 7.43509 11.3463 7.43509C11.57 7.43509 11.745 7.53274 11.7968 7.66154L11.788 6.93879C11.7852 6.88139 11.8139 6.85269 11.8713 6.85269H12.2329C12.2903 6.85269 12.3162 6.88139 12.3162 6.93879L12.2819 8.97264C12.2819 9.03004 12.2532 9.05874 12.1958 9.05874H11.9147L11.914 9.05909ZM11.8307 8.30764C11.8307 8.06684 11.6816 7.90619 11.458 7.90619C11.2459 7.90619 11.0852 8.06684 11.0852 8.30764C11.0852 8.54844 11.2459 8.70909 11.458 8.70909C11.6701 8.70909 11.8307 8.54844 11.8307 8.30764Z" fill="white"/>
<path d="M13.8822 9.0591C13.8304 9.0591 13.8048 9.036 13.8048 8.99015V8.8582C13.7247 8.99575 13.5465 9.0962 13.3428 9.0962C12.9127 9.0962 12.5742 8.7777 12.5742 8.26705C12.5742 7.7564 12.9127 7.4295 13.3428 7.4351C13.5322 7.4379 13.7128 7.53555 13.7674 7.6675V7.5499C13.7646 7.4925 13.7933 7.4638 13.8507 7.4638H14.2007C14.2581 7.4638 14.284 7.4925 14.284 7.5499L14.2497 8.97265C14.2497 9.03005 14.221 9.05875 14.1636 9.05875H13.8825L13.8822 9.0591ZM13.7989 8.30765C13.7989 8.06685 13.6669 7.9062 13.4261 7.9062C13.1853 7.9062 13.0534 8.06685 13.0534 8.30765C13.0534 8.54845 13.1969 8.7091 13.4261 8.7091C13.6554 8.7091 13.7989 8.54845 13.7989 8.30765Z" fill="white"/>
<path d="M14.9547 9.0591C14.8973 9.0591 14.8686 9.0304 14.8686 8.973L14.8514 7.9118L14.5417 7.9174C14.4902 7.9174 14.4556 7.8831 14.4556 7.8313V7.5387C14.4556 7.4869 14.4899 7.4526 14.5417 7.4526L14.843 7.4554L14.8402 7.1341C14.8374 7.0767 14.8661 7.048 14.9235 7.048H15.2676C15.325 7.048 15.3477 7.0767 15.3509 7.1341L15.3453 7.461L15.6494 7.4638C15.7012 7.4638 15.7355 7.4981 15.7355 7.5499V7.811C15.7355 7.8628 15.7012 7.8943 15.6494 7.8971L15.3397 7.9027L15.3225 8.97265C15.3225 9.03005 15.2938 9.05875 15.2364 9.05875H14.9554L14.9547 9.0591Z" fill="white"/>
<path d="M17.2897 8.77806C17.3128 8.81236 17.3155 8.85541 17.2697 8.89566C17.1035 9.03321 16.9054 9.09656 16.6443 9.09656C16.148 9.09656 15.7896 8.77806 15.7896 8.26741C15.7896 7.75676 16.1395 7.42426 16.6012 7.42426C17.0947 7.42426 17.3929 7.74276 17.4045 8.17851C17.4073 8.31921 17.3299 8.43961 17.1665 8.44241L16.283 8.46551C16.3145 8.62896 16.4752 8.72941 16.6789 8.72661C16.8339 8.72381 16.9544 8.68916 17.0604 8.62616C17.1178 8.59466 17.1637 8.60026 17.1896 8.63771L17.29 8.77841L17.2897 8.77806ZM16.9827 8.08086C16.9596 7.92581 16.8049 7.81136 16.6155 7.81976C16.4118 7.82851 16.2859 7.95451 16.2684 8.10956L16.9827 8.08086Z" fill="white"/>
<path d="M11.3565 19.9024C11.2116 19.9024 11.1392 19.83 11.1392 19.6851L11.0741 15.666L10.4731 15.6877C10.3209 15.6877 10.2197 15.5862 10.2197 15.4343V14.7102C10.2197 14.5579 10.3212 14.4568 10.4731 14.4568L12.1097 14.4785C12.2616 14.4785 12.3631 14.58 12.3631 14.7319L12.2833 19.6854C12.2833 19.8303 12.2109 19.9028 12.066 19.9028H11.3562L11.3565 19.9024Z" fill="#3A3A3A"/>
<path d="M13.0874 17.1941C13.0874 15.5575 14.0433 14.3696 15.4412 14.3696C16.8391 14.3696 17.7802 15.5572 17.7802 17.1941C17.7802 18.8311 16.8387 19.9749 15.4412 19.9749C14.0436 19.9749 13.0874 18.8307 13.0874 17.1941ZM16.6214 17.2666C16.6214 16.2673 16.194 15.6877 15.5063 15.6877C14.8185 15.6877 14.3912 16.267 14.3912 17.2666C14.3912 18.2662 14.8185 18.8381 15.5063 18.8381C16.194 18.8381 16.6214 18.2658 16.6214 17.2666Z" fill="#3A3A3A"/>
</g>
<defs>
<clipPath id="clip0_150_2541">
<rect width="28" height="28" fill="white"/>
</clipPath>
</defs>
</svg>
