<svg width="298" height="56" viewBox="0 0 298 56" fill="none" xmlns="http://www.w3.org/2000/svg">
<g filter="url(#filter0_d_365_2017)">
<rect x="8" y="6" width="282" height="40" rx="2" fill="white"/>
</g>
<path d="M112.6 23.6035H114.097V30.7949C114.097 31.4603 113.955 32.0254 113.673 32.4902C113.39 32.9551 112.996 33.3083 112.49 33.5498C111.984 33.7959 111.399 33.9189 110.733 33.9189C110.451 33.9189 110.136 33.8779 109.79 33.7959C109.448 33.7139 109.116 33.5817 108.792 33.3994C108.473 33.2217 108.206 32.987 107.992 32.6953L108.765 31.7246C109.029 32.0391 109.321 32.2692 109.64 32.415C109.959 32.5609 110.294 32.6338 110.645 32.6338C111.023 32.6338 111.344 32.5632 111.608 32.4219C111.877 32.2852 112.085 32.0824 112.23 31.8135C112.376 31.5446 112.449 31.2165 112.449 30.8291V25.2783L112.6 23.6035ZM107.575 27.3838V27.2402C107.575 26.6797 107.644 26.1693 107.78 25.709C107.917 25.2441 108.113 24.8454 108.368 24.5127C108.623 24.1755 108.933 23.918 109.298 23.7402C109.662 23.5579 110.075 23.4668 110.535 23.4668C111.014 23.4668 111.422 23.5534 111.759 23.7266C112.101 23.8997 112.385 24.1481 112.613 24.4717C112.841 24.7907 113.019 25.1735 113.146 25.6201C113.279 26.0622 113.377 26.5544 113.44 27.0967V27.5547C113.381 28.0833 113.281 28.5664 113.14 29.0039C112.998 29.4414 112.812 29.8197 112.579 30.1387C112.347 30.4577 112.06 30.7038 111.718 30.877C111.381 31.0501 110.982 31.1367 110.521 31.1367C110.07 31.1367 109.662 31.0433 109.298 30.8564C108.938 30.6696 108.628 30.4076 108.368 30.0703C108.113 29.7331 107.917 29.3366 107.78 28.8809C107.644 28.4206 107.575 27.9215 107.575 27.3838ZM109.223 27.2402V27.3838C109.223 27.721 109.255 28.0355 109.318 28.3271C109.387 28.6188 109.489 28.8763 109.626 29.0996C109.767 29.3184 109.945 29.4915 110.159 29.6191C110.378 29.7422 110.635 29.8037 110.932 29.8037C111.319 29.8037 111.636 29.7217 111.882 29.5576C112.132 29.3936 112.324 29.1725 112.456 28.8945C112.593 28.612 112.688 28.2975 112.743 27.9512V26.7139C112.716 26.445 112.659 26.1943 112.572 25.9619C112.49 25.7295 112.379 25.5267 112.237 25.3535C112.096 25.1758 111.918 25.0391 111.704 24.9434C111.49 24.8431 111.237 24.793 110.945 24.793C110.649 24.793 110.392 24.8568 110.173 24.9844C109.954 25.112 109.774 25.2874 109.633 25.5107C109.496 25.734 109.394 25.9938 109.325 26.29C109.257 26.5863 109.223 26.903 109.223 27.2402ZM115.491 27.3838V27.2266C115.491 26.6934 115.569 26.1989 115.724 25.7432C115.879 25.2829 116.102 24.8841 116.394 24.5469C116.69 24.2051 117.05 23.9408 117.474 23.7539C117.902 23.5625 118.385 23.4668 118.923 23.4668C119.465 23.4668 119.948 23.5625 120.372 23.7539C120.8 23.9408 121.163 24.2051 121.459 24.5469C121.755 24.8841 121.981 25.2829 122.136 25.7432C122.291 26.1989 122.368 26.6934 122.368 27.2266V27.3838C122.368 27.917 122.291 28.4115 122.136 28.8672C121.981 29.3229 121.755 29.7217 121.459 30.0635C121.163 30.4007 120.803 30.665 120.379 30.8564C119.955 31.0433 119.474 31.1367 118.937 31.1367C118.394 31.1367 117.909 31.0433 117.48 30.8564C117.057 30.665 116.697 30.4007 116.4 30.0635C116.104 29.7217 115.879 29.3229 115.724 28.8672C115.569 28.4115 115.491 27.917 115.491 27.3838ZM117.139 27.2266V27.3838C117.139 27.7165 117.173 28.0309 117.241 28.3271C117.31 28.6234 117.417 28.8831 117.562 29.1064C117.708 29.3298 117.895 29.5052 118.123 29.6328C118.351 29.7604 118.622 29.8242 118.937 29.8242C119.242 29.8242 119.506 29.7604 119.729 29.6328C119.957 29.5052 120.144 29.3298 120.29 29.1064C120.436 28.8831 120.543 28.6234 120.611 28.3271C120.684 28.0309 120.721 27.7165 120.721 27.3838V27.2266C120.721 26.8984 120.684 26.5885 120.611 26.2969C120.543 26.0007 120.434 25.7386 120.283 25.5107C120.137 25.2829 119.951 25.1051 119.723 24.9775C119.499 24.8454 119.233 24.7793 118.923 24.7793C118.613 24.7793 118.344 24.8454 118.116 24.9775C117.893 25.1051 117.708 25.2829 117.562 25.5107C117.417 25.7386 117.31 26.0007 117.241 26.2969C117.173 26.5885 117.139 26.8984 117.139 27.2266ZM123.435 27.3838V27.2266C123.435 26.6934 123.512 26.1989 123.667 25.7432C123.822 25.2829 124.045 24.8841 124.337 24.5469C124.633 24.2051 124.993 23.9408 125.417 23.7539C125.845 23.5625 126.328 23.4668 126.866 23.4668C127.409 23.4668 127.892 23.5625 128.315 23.7539C128.744 23.9408 129.106 24.2051 129.402 24.5469C129.699 24.8841 129.924 25.2829 130.079 25.7432C130.234 26.1989 130.312 26.6934 130.312 27.2266V27.3838C130.312 27.917 130.234 28.4115 130.079 28.8672C129.924 29.3229 129.699 29.7217 129.402 30.0635C129.106 30.4007 128.746 30.665 128.322 30.8564C127.898 31.0433 127.418 31.1367 126.88 31.1367C126.338 31.1367 125.852 31.0433 125.424 30.8564C125 30.665 124.64 30.4007 124.344 30.0635C124.048 29.7217 123.822 29.3229 123.667 28.8672C123.512 28.4115 123.435 27.917 123.435 27.3838ZM125.082 27.2266V27.3838C125.082 27.7165 125.116 28.0309 125.185 28.3271C125.253 28.6234 125.36 28.8831 125.506 29.1064C125.652 29.3298 125.839 29.5052 126.066 29.6328C126.294 29.7604 126.565 29.8242 126.88 29.8242C127.185 29.8242 127.45 29.7604 127.673 29.6328C127.901 29.5052 128.088 29.3298 128.233 29.1064C128.379 28.8831 128.486 28.6234 128.555 28.3271C128.628 28.0309 128.664 27.7165 128.664 27.3838V27.2266C128.664 26.8984 128.628 26.5885 128.555 26.2969C128.486 26.0007 128.377 25.7386 128.227 25.5107C128.081 25.2829 127.894 25.1051 127.666 24.9775C127.443 24.8454 127.176 24.7793 126.866 24.7793C126.556 24.7793 126.287 24.8454 126.06 24.9775C125.836 25.1051 125.652 25.2829 125.506 25.5107C125.36 25.7386 125.253 26.0007 125.185 26.2969C125.116 26.5885 125.082 26.8984 125.082 27.2266ZM136.43 23.6035H137.927V30.7949C137.927 31.4603 137.785 32.0254 137.503 32.4902C137.22 32.9551 136.826 33.3083 136.32 33.5498C135.814 33.7959 135.229 33.9189 134.563 33.9189C134.281 33.9189 133.966 33.8779 133.62 33.7959C133.278 33.7139 132.946 33.5817 132.622 33.3994C132.303 33.2217 132.036 32.987 131.822 32.6953L132.595 31.7246C132.859 32.0391 133.151 32.2692 133.47 32.415C133.789 32.5609 134.124 32.6338 134.475 32.6338C134.853 32.6338 135.174 32.5632 135.438 32.4219C135.707 32.2852 135.915 32.0824 136.061 31.8135C136.206 31.5446 136.279 31.2165 136.279 30.8291V25.2783L136.43 23.6035ZM131.405 27.3838V27.2402C131.405 26.6797 131.474 26.1693 131.61 25.709C131.747 25.2441 131.943 24.8454 132.198 24.5127C132.453 24.1755 132.763 23.918 133.128 23.7402C133.493 23.5579 133.905 23.4668 134.365 23.4668C134.844 23.4668 135.252 23.5534 135.589 23.7266C135.931 23.8997 136.215 24.1481 136.443 24.4717C136.671 24.7907 136.849 25.1735 136.977 25.6201C137.109 26.0622 137.207 26.5544 137.271 27.0967V27.5547C137.211 28.0833 137.111 28.5664 136.97 29.0039C136.828 29.4414 136.642 29.8197 136.409 30.1387C136.177 30.4577 135.89 30.7038 135.548 30.877C135.211 31.0501 134.812 31.1367 134.352 31.1367C133.9 31.1367 133.493 31.0433 133.128 30.8564C132.768 30.6696 132.458 30.4076 132.198 30.0703C131.943 29.7331 131.747 29.3366 131.61 28.8809C131.474 28.4206 131.405 27.9215 131.405 27.3838ZM133.053 27.2402V27.3838C133.053 27.721 133.085 28.0355 133.148 28.3271C133.217 28.6188 133.319 28.8763 133.456 29.0996C133.597 29.3184 133.775 29.4915 133.989 29.6191C134.208 29.7422 134.465 29.8037 134.762 29.8037C135.149 29.8037 135.466 29.7217 135.712 29.5576C135.963 29.3936 136.154 29.1725 136.286 28.8945C136.423 28.612 136.519 28.2975 136.573 27.9512V26.7139C136.546 26.445 136.489 26.1943 136.402 25.9619C136.32 25.7295 136.209 25.5267 136.067 25.3535C135.926 25.1758 135.748 25.0391 135.534 24.9434C135.32 24.8431 135.067 24.793 134.775 24.793C134.479 24.793 134.222 24.8568 134.003 24.9844C133.784 25.112 133.604 25.2874 133.463 25.5107C133.326 25.734 133.224 25.9938 133.155 26.29C133.087 26.5863 133.053 26.903 133.053 27.2402ZM141.399 20.5V31H139.745V20.5H141.399ZM146.465 31.1367C145.918 31.1367 145.424 31.0479 144.981 30.8701C144.544 30.6878 144.17 30.4349 143.86 30.1113C143.555 29.7878 143.32 29.4072 143.156 28.9697C142.992 28.5322 142.91 28.0605 142.91 27.5547V27.2812C142.91 26.7025 142.994 26.1784 143.163 25.709C143.332 25.2396 143.566 24.8385 143.867 24.5059C144.168 24.1686 144.523 23.9111 144.934 23.7334C145.344 23.5557 145.788 23.4668 146.267 23.4668C146.795 23.4668 147.258 23.5557 147.654 23.7334C148.051 23.9111 148.379 24.1618 148.639 24.4854C148.903 24.8044 149.099 25.1849 149.227 25.627C149.359 26.069 149.425 26.5566 149.425 27.0898V27.7939H143.71V26.6113H147.798V26.4814C147.789 26.1852 147.729 25.9072 147.62 25.6475C147.515 25.3877 147.354 25.1781 147.135 25.0186C146.916 24.859 146.624 24.7793 146.26 24.7793C145.986 24.7793 145.743 24.8385 145.528 24.957C145.319 25.071 145.143 25.2373 145.002 25.4561C144.861 25.6748 144.751 25.9391 144.674 26.249C144.601 26.5544 144.564 26.8984 144.564 27.2812V27.5547C144.564 27.8783 144.608 28.179 144.694 28.457C144.785 28.7305 144.918 28.9697 145.091 29.1748C145.264 29.3799 145.474 29.5417 145.72 29.6602C145.966 29.7741 146.246 29.8311 146.561 29.8311C146.957 29.8311 147.31 29.7513 147.62 29.5918C147.93 29.4323 148.199 29.2067 148.427 28.915L149.295 29.7559C149.135 29.9883 148.928 30.2116 148.673 30.4258C148.418 30.6354 148.105 30.8063 147.736 30.9385C147.372 31.0706 146.948 31.1367 146.465 31.1367ZM160.349 29.544V27.178H164.367V26.254H156.639V24.224H164.073V20.402H155.477V21.34H162.953V23.3H155.505V27.178H159.187V29.544H154.077V30.482H165.487V29.544H160.349ZM175.678 22.068C175.678 23.622 175.678 25.498 175.174 28.06L176.322 28.186C176.812 25.47 176.812 23.664 176.812 22.068V20.808H168.202V21.746H175.678V22.068ZM166.984 29.25V30.202H178.338V29.25H166.984ZM190.152 19.492H189.004V28.662H190.152V19.492ZM181.262 23.44C181.262 22.222 182.186 21.354 183.404 21.354C184.65 21.354 185.574 22.222 185.574 23.44C185.574 24.686 184.65 25.554 183.404 25.554C182.186 25.554 181.262 24.686 181.262 23.44ZM186.694 23.44C186.694 21.634 185.28 20.36 183.404 20.36C181.542 20.36 180.142 21.634 180.142 23.44C180.142 25.26 181.542 26.548 183.404 26.548C185.28 26.548 186.694 25.26 186.694 23.44ZM183.222 30.818V27.724H182.074V31.756H190.53V30.818H183.222Z" fill="black" fill-opacity="0.54"/>
<path fill-rule="evenodd" clip-rule="evenodd" d="M38.64 26.2C38.64 25.56 38.58 24.95 38.48 24.36H30V27.84H34.84C34.63 28.96 34 29.92 33.04 30.56V32.82H35.95C37.65 31.25 38.63 28.95 38.63 26.2H38.64Z" fill="#4285F4"/>
<path fill-rule="evenodd" clip-rule="evenodd" d="M30 35C32.43 35 34.47 34.19 35.96 32.82L33.05 30.56C32.24 31.1 31.21 31.42 30 31.42C27.66 31.42 25.67 29.84 24.96 27.71H21.96V30.04C23.44 32.98 26.48 35 30 35Z" fill="#34A853"/>
<path fill-rule="evenodd" clip-rule="evenodd" d="M24.96 27.71C24.78 27.17 24.68 26.59 24.68 26C24.68 25.41 24.78 24.83 24.96 24.29V21.96H21.96C21.35 23.18 21 24.55 21 26C21 27.45 21.35 28.83 21.96 30.04L24.97 27.71H24.96Z" fill="#FBBC05"/>
<path fill-rule="evenodd" clip-rule="evenodd" d="M30 20.58C31.32 20.58 32.51 21.03 33.44 21.93L36.02 19.35C34.46 17.9 32.42 17.01 30 17.01C26.48 17 23.44 19.02 21.96 21.96L24.97 24.29C25.68 22.16 27.66 20.58 30.01 20.58H30Z" fill="#EA4335"/>
<defs>
<filter id="filter0_d_365_2017" x="0" y="0" width="298" height="56" filterUnits="userSpaceOnUse" color-interpolation-filters="sRGB">
<feFlood flood-opacity="0" result="BackgroundImageFix"/>
<feColorMatrix in="SourceAlpha" type="matrix" values="0 0 0 0 0 0 0 0 0 0 0 0 0 0 0 0 0 0 127 0" result="hardAlpha"/>
<feOffset dy="2"/>
<feGaussianBlur stdDeviation="4"/>
<feComposite in2="hardAlpha" operator="out"/>
<feColorMatrix type="matrix" values="0 0 0 0 0 0 0 0 0 0 0 0 0 0 0 0 0 0 0.12 0"/>
<feBlend mode="normal" in2="BackgroundImageFix" result="effect1_dropShadow_365_2017"/>
<feBlend mode="normal" in="SourceGraphic" in2="effect1_dropShadow_365_2017" result="shape"/>
</filter>
</defs>
</svg>
