<svg width="94" height="102" viewBox="0 0 94 102" fill="none" xmlns="http://www.w3.org/2000/svg">
<g filter="url(#filter0_d_150_1439)">
<rect x="24" y="24" width="54" height="54" rx="20" fill="#491DC5"/>
</g>
<g clip-path="url(#clip0_150_1439)">
<path d="M59 41C59.552 41 60 41.448 60 42V45.757L58 47.757V43H44V59H58V56.242L60 54.242V60C60 60.552 59.552 61 59 61H43C42.448 61 42 60.552 42 60V42C42 41.448 42.448 41 43 41H59ZM60.778 47.808L62.192 49.222L54.414 57L52.998 56.998L53 55.586L60.778 47.808ZM52 51V53H47V51H52ZM55 47V49H47V47H55Z" fill="#CBC4F9"/>
</g>
<defs>
<filter id="filter0_d_150_1439" x="0" y="0" width="102" height="102" filterUnits="userSpaceOnUse" color-interpolation-filters="sRGB">
<feFlood flood-opacity="0" result="BackgroundImageFix"/>
<feColorMatrix in="SourceAlpha" type="matrix" values="0 0 0 0 0 0 0 0 0 0 0 0 0 0 0 0 0 0 127 0" result="hardAlpha"/>
<feOffset/>
<feGaussianBlur stdDeviation="12"/>
<feComposite in2="hardAlpha" operator="out"/>
<feColorMatrix type="matrix" values="0 0 0 0 0 0 0 0 0 0 0 0 0 0 0 0 0 0 0.12 0"/>
<feBlend mode="normal" in2="BackgroundImageFix" result="effect1_dropShadow_150_1439"/>
<feBlend mode="normal" in="SourceGraphic" in2="effect1_dropShadow_150_1439" result="shape"/>
</filter>
<clipPath id="clip0_150_1439">
<rect width="24" height="24" fill="white" transform="translate(39 39)"/>
</clipPath>
</defs>
</svg>
