<svg width="24" height="24" viewBox="0 0 24 24" fill="none" xmlns="http://www.w3.org/2000/svg">
<rect width="24" height="24" fill="#FDFDFF"/>
<g clip-path="url(#clip0_150_1345)">
<path d="M14.9999 6C17.0253 6 18.6666 7.66667 18.6666 10C18.6666 14.6667 13.6666 17.3333 11.9999 18.3333C10.3333 17.3333 5.33325 14.6667 5.33325 10C5.33325 7.66667 6.99992 6 8.99992 6C10.2399 6 11.3333 6.66667 11.9999 7.33333C12.6666 6.66667 13.7599 6 14.9999 6ZM12.6226 16.4027C13.2099 16.032 13.7399 15.6633 14.2359 15.2687C16.2233 13.6887 17.3333 11.962 17.3333 10C17.3333 8.42667 16.3086 7.33333 14.9999 7.33333C14.2826 7.33333 13.5066 7.71333 12.9426 8.276L11.9999 9.21867L11.0573 8.276C10.4933 7.71333 9.71725 7.33333 8.99992 7.33333C7.70659 7.33333 6.66659 8.43733 6.66659 10C6.66659 11.9627 7.77725 13.6887 9.76325 15.2687C10.2599 15.6633 10.7899 16.032 11.3773 16.402C11.5766 16.528 11.7739 16.6487 11.9999 16.7833C12.2259 16.6487 12.4233 16.528 12.6226 16.4027Z" fill="#CFCFCF"/>
</g>
<defs>
<clipPath id="clip0_150_1345">
<rect width="16" height="16" fill="white" transform="translate(4 4)"/>
</clipPath>
</defs>
</svg>
