<svg width="84" height="24" viewBox="0 0 84 24" fill="none" xmlns="http://www.w3.org/2000/svg">
<g clip-path="url(#clip0_365_2064)">
<path d="M13.5055 3.51562H9.77218C6.25192 3.51562 3.39819 6.45375 3.39819 10.0781V19.5469C3.39819 20.0646 3.8059 20.4844 4.30876 20.4844H13.5055C17.0258 20.4844 19.8795 17.5462 19.8795 13.9219V10.0781C19.8795 6.45375 17.0258 3.51562 13.5055 3.51562ZM12.7053 9.38977C13.0725 9.38977 13.3703 9.83016 13.3703 10.3732C13.3703 10.9162 13.0725 11.3566 12.7053 11.3566C12.3382 11.3566 12.0404 10.9162 12.0404 10.3732C12.0404 9.83016 12.3382 9.38977 12.7053 9.38977ZM10.2145 9.38977C10.5817 9.38977 10.8794 9.83016 10.8794 10.3732C10.8794 10.9162 10.5817 11.3566 10.2145 11.3566C9.8473 11.3566 9.54954 10.9162 9.54954 10.3732C9.54954 9.83016 9.8473 9.38977 10.2145 9.38977ZM11.4745 15.9455C8.94629 15.9455 6.88977 13.4749 6.88977 10.4384H7.63416C7.63416 13.0275 9.35696 15.1341 11.4745 15.1341C13.592 15.1341 15.3148 13.0275 15.3148 10.4384H16.0592C16.0592 13.4749 14.0025 15.9455 11.4745 15.9455ZM15.9595 13.5809C15.7639 13.5855 15.5775 13.5483 15.4038 13.4831C15.5308 13.2563 15.6431 13.0172 15.741 12.768C15.8056 12.7847 15.8721 12.7959 15.942 12.7943C16.3633 12.7845 16.6982 12.4235 16.6884 11.9899C16.6804 11.6341 16.4421 11.3419 16.1245 11.2523C16.1569 10.9927 16.1735 10.7276 16.1744 10.4576C16.8844 10.5788 17.4353 11.2048 17.4524 11.9719C17.4715 12.8393 16.8018 13.5609 15.9593 13.5809H15.9595Z" fill="#6A53F7"/>
<path d="M23.33 17.2124V6.69861H26.865C29.9218 6.71337 31.7618 8.67369 31.7618 11.9556C31.7618 15.2376 29.9218 17.2127 26.807 17.2127H23.33V17.2124ZM26.72 15.5788C28.8496 15.5788 29.9364 14.361 29.9364 11.9554C29.9364 9.54978 28.8498 8.34673 26.7491 8.33197H25.1554V15.5788H26.72Z" fill="#6A53F7"/>
<path d="M32.1964 17.2124L35.7893 6.69861H38.0782L41.6711 17.2124H39.7009L38.8606 14.6285H34.9923L34.1375 17.2124H32.1962H32.1964ZM38.3537 13.0842L36.9773 8.86681H36.8904L35.4995 13.0842H38.3537Z" fill="#6A53F7"/>
<path d="M45.177 6.69861L48.2195 14.3315H48.3353L51.3778 6.69861H53.6378V17.2124H51.8704V9.99533H51.7834L48.9438 17.1827H47.611L44.7714 9.96556H44.6844V17.2124H42.917V6.69861H45.177Z" fill="#6A53F7"/>
<path d="M59.983 17.3608C57.2884 17.3608 55.2891 15.3412 55.2891 11.9554C55.2891 8.56964 57.2884 6.5648 59.983 6.5798C62.6633 6.56503 64.6916 8.56964 64.677 11.9554C64.6916 15.3562 62.6633 17.3608 59.983 17.3608ZM59.983 15.6679C61.6635 15.6532 62.8372 14.361 62.8227 11.9554C62.8372 9.56456 61.6637 8.25769 59.983 8.27269C58.3169 8.25792 57.1291 9.56456 57.1434 11.9554C57.1289 14.361 58.3169 15.6532 59.983 15.6679Z" fill="#6A53F7"/>
<path d="M68.1536 17.2124H66.3281V6.69861H68.1536V17.2124Z" fill="#6A53F7"/>
<path d="M72.3261 6.69861L75.3685 14.3315H75.4844L78.5268 6.69861H80.7869V17.2124H79.0194V9.99533H78.9325L76.0929 17.1827H74.76L71.9204 9.96556H71.8335V17.2124H70.066V6.69861H72.3261Z" fill="#6A53F7"/>
</g>
<defs>
<clipPath id="clip0_365_2064">
<rect width="84" height="24" fill="white"/>
</clipPath>
</defs>
</svg>
